<svg viewBox="0 0 24 24" fill="none" stroke="currentColor" stroke-width="0.6" stroke-linecap="round" stroke-linejoin="round"><path d="M 14.80 12.00 L 15.40 12.03 L 16.00 12.09 L 16.60 12.08 L 17.20 11.97 L 17.80 11.81 L 18.40 11.74 L 19.00 11.86 L 19.60 12.12 L 20.20 12.37 L 20.80 12.40 L 21.40 12.14 L 22.00 11.73 L 22.60 11.44 L 23.20 11.50"/><path d="M 14.59 13.07 L 15.13 13.33 L 15.66 13.61 L 16.22 13.83 L 16.82 13.96 L 17.43 14.05 L 18.01 14.21 L 18.52 14.55 L 18.97 15.02 L 19.43 15.48 L 19.98 15.74 L 20.63 15.73 L 21.34 15.58 L 22.01 15.54 L 22.54 15.82"/><path d="M 13.98 13.98 L 14.38 14.43 L 14.77 14.89 L 15.20 15.31 L 15.70 15.65 L 16.23 15.97 L 16.71 16.34 L 17.05 16.85 L 17.29 17.46 L 17.54 18.06 L 17.94 18.50 L 18.55 18.75 L 19.26 18.88 L 19.89 19.10 L 20.27 19.56"/><path d="M 13.07 14.59 L 13.27 15.15 L 13.45 15.73 L 13.69 16.28 L 14.02 16.79 L 14.39 17.29 L 14.69 17.81 L 14.81 18.41 L 14.79 19.07 L 14.80 19.72 L 15.00 20.28 L 15.47 20.74 L 16.08 21.13 L 16.58 21.58 L 16.75 22.16"/><path d="M 12.00 14.80 L 11.97 15.40 L 11.91 16.00 L 11.92 16.60 L 12.03 17.20 L 12.19 17.80 L 12.26 18.40 L 12.14 19.00 L 11.88 19.60 L 11.63 20.20 L 11.60 20.80 L 11.86 21.40 L 12.27 22.00 L 12.56 22.60 L 12.50 23.20"/><path d="M 10.93 14.59 L 10.67 15.13 L 10.39 15.66 L 10.17 16.22 L 10.04 16.82 L 9.95 17.43 L 9.79 18.01 L 9.45 18.52 L 8.98 18.97 L 8.52 19.43 L 8.26 19.98 L 8.27 20.63 L 8.42 21.34 L 8.46 22.01 L 8.18 22.54"/><path d="M 10.02 13.98 L 9.57 14.38 L 9.11 14.77 L 8.69 15.20 L 8.35 15.70 L 8.03 16.23 L 7.66 16.71 L 7.15 17.05 L 6.54 17.29 L 5.94 17.54 L 5.50 17.94 L 5.25 18.55 L 5.12 19.26 L 4.90 19.89 L 4.44 20.27"/><path d="M 9.41 13.07 L 8.85 13.27 L 8.27 13.45 L 7.72 13.69 L 7.21 14.02 L 6.71 14.39 L 6.19 14.69 L 5.59 14.81 L 4.93 14.79 L 4.28 14.80 L 3.72 15.00 L 3.26 15.47 L 2.87 16.08 L 2.42 16.58 L 1.84 16.75"/><path d="M 9.20 12.00 L 8.60 11.97 L 8.00 11.91 L 7.40 11.92 L 6.80 12.03 L 6.20 12.19 L 5.60 12.26 L 5.00 12.14 L 4.40 11.88 L 3.80 11.63 L 3.20 11.60 L 2.60 11.86 L 2.00 12.27 L 1.40 12.56 L 0.80 12.50"/><path d="M 9.41 10.93 L 8.87 10.67 L 8.34 10.39 L 7.78 10.17 L 7.18 10.04 L 6.57 9.95 L 5.99 9.79 L 5.48 9.45 L 5.03 8.98 L 4.57 8.52 L 4.02 8.26 L 3.37 8.27 L 2.66 8.42 L 1.99 8.46 L 1.46 8.18"/><path d="M 10.02 10.02 L 9.62 9.57 L 9.23 9.11 L 8.80 8.69 L 8.30 8.35 L 7.77 8.03 L 7.29 7.66 L 6.95 7.15 L 6.71 6.54 L 6.46 5.94 L 6.06 5.50 L 5.45 5.25 L 4.74 5.12 L 4.11 4.90 L 3.73 4.44"/><path d="M 10.93 9.41 L 10.73 8.85 L 10.55 8.27 L 10.31 7.72 L 9.98 7.21 L 9.61 6.71 L 9.31 6.19 L 9.19 5.59 L 9.21 4.93 L 9.20 4.28 L 9.00 3.72 L 8.53 3.26 L 7.92 2.87 L 7.42 2.42 L 7.25 1.84"/><path d="M 12.00 9.20 L 12.03 8.60 L 12.09 8.00 L 12.08 7.40 L 11.97 6.80 L 11.81 6.20 L 11.74 5.60 L 11.86 5.00 L 12.12 4.40 L 12.37 3.80 L 12.40 3.20 L 12.14 2.60 L 11.73 2.00 L 11.44 1.40 L 11.50 0.80"/><path d="M 13.07 9.41 L 13.33 8.87 L 13.61 8.34 L 13.83 7.78 L 13.96 7.18 L 14.05 6.57 L 14.21 5.99 L 14.55 5.48 L 15.02 5.03 L 15.48 4.57 L 15.74 4.02 L 15.73 3.37 L 15.58 2.66 L 15.54 1.99 L 15.82 1.46"/><path d="M 13.98 10.02 L 14.43 9.62 L 14.89 9.23 L 15.31 8.80 L 15.65 8.30 L 15.97 7.77 L 16.34 7.29 L 16.85 6.95 L 17.46 6.71 L 18.06 6.46 L 18.50 6.06 L 18.75 5.45 L 18.88 4.74 L 19.10 4.11 L 19.56 3.73"/><path d="M 14.59 10.93 L 15.15 10.73 L 15.73 10.55 L 16.28 10.31 L 16.79 9.98 L 17.29 9.61 L 17.81 9.31 L 18.41 9.19 L 19.07 9.21 L 19.72 9.20 L 20.28 9.00 L 20.74 8.53 L 21.13 7.92 L 21.58 7.42 L 22.16 7.25"/></svg>
