<svg viewBox="0 0 24 24" fill="none" stroke="currentColor" stroke-width="0.4" stroke-linecap="round" stroke-linejoin="round"><path d="M 13.80 12.00 L 14.51 12.10 L 15.23 12.11 L 15.94 11.84 L 16.65 11.68 L 17.36 12.00 L 18.08 12.45 L 18.79 12.32 L 19.50 11.64 L 20.21 11.36 L 20.93 12.00 L 21.64 12.76 L 22.35 12.51 L 23.06 11.46 L 23.78 11.07 L 24.49 12.00 L 25.20 13.05"/><path d="M 13.46 13.06 L 13.97 13.56 L 14.54 13.98 L 15.28 14.19 L 15.95 14.47 L 16.34 15.15 L 16.65 15.94 L 17.30 16.25 L 18.28 16.12 L 19.02 16.31 L 19.22 17.25 L 19.35 18.28 L 20.08 18.49 L 21.27 18.06 L 22.08 18.17 L 22.10 19.34 L 22.06 20.61"/><path d="M 12.56 13.71 L 12.68 14.42 L 12.89 15.10 L 13.36 15.70 L 13.74 16.32 L 13.66 17.10 L 13.45 17.92 L 13.79 18.55 L 14.66 19.02 L 15.15 19.61 L 14.76 20.49 L 14.25 21.40 L 14.72 22.00 L 15.93 22.35 L 16.53 22.91 L 15.86 23.88 L 15.08 24.88"/><path d="M 11.44 13.71 L 11.13 14.36 L 10.90 15.03 L 10.93 15.79 L 10.87 16.52 L 10.34 17.10 L 9.69 17.64 L 9.60 18.36 L 10.02 19.24 L 10.07 20.01 L 9.24 20.49 L 8.30 20.93 L 8.32 21.69 L 9.10 22.69 L 9.25 23.49 L 8.14 23.88 L 6.93 24.23"/><path d="M 10.54 13.06 L 9.91 13.40 L 9.33 13.81 L 8.91 14.44 L 8.43 14.99 L 7.66 15.15 L 6.82 15.20 L 6.32 15.73 L 6.14 16.70 L 5.73 17.35 L 4.78 17.25 L 3.76 17.05 L 3.33 17.67 L 3.37 18.94 L 3.02 19.68 L 1.90 19.34 L 0.71 18.91"/><path d="M 10.20 12.00 L 9.49 11.90 L 8.78 11.89 L 8.06 12.16 L 7.35 12.32 L 6.64 12.00 L 5.93 11.55 L 5.21 11.68 L 4.50 12.36 L 3.79 12.64 L 3.08 12.00 L 2.36 11.24 L 1.65 11.49 L 0.94 12.54 L 0.23 12.93 L -0.49 12.00 L -1.20 10.95"/><path d="M 10.54 10.94 L 10.03 10.44 L 9.46 10.02 L 8.72 9.81 L 8.05 9.53 L 7.66 8.85 L 7.35 8.06 L 6.70 7.75 L 5.72 7.88 L 4.98 7.69 L 4.78 6.75 L 4.65 5.72 L 3.92 5.51 L 2.73 5.94 L 1.92 5.83 L 1.90 4.66 L 1.94 3.39"/><path d="M 11.44 10.29 L 11.32 9.58 L 11.11 8.90 L 10.64 8.30 L 10.26 7.68 L 10.34 6.90 L 10.55 6.08 L 10.21 5.45 L 9.34 4.98 L 8.85 4.39 L 9.24 3.51 L 9.75 2.60 L 9.28 2.00 L 8.07 1.65 L 7.47 1.09 L 8.14 0.12 L 8.92 -0.88"/><path d="M 12.56 10.29 L 12.87 9.64 L 13.10 8.97 L 13.07 8.21 L 13.13 7.48 L 13.66 6.90 L 14.31 6.36 L 14.40 5.64 L 13.98 4.76 L 13.93 3.99 L 14.76 3.51 L 15.70 3.07 L 15.68 2.31 L 14.90 1.31 L 14.75 0.51 L 15.86 0.12 L 17.07 -0.23"/><path d="M 13.46 10.94 L 14.09 10.60 L 14.67 10.19 L 15.09 9.56 L 15.57 9.01 L 16.34 8.85 L 17.18 8.80 L 17.68 8.27 L 17.86 7.30 L 18.27 6.65 L 19.22 6.75 L 20.24 6.95 L 20.67 6.33 L 20.63 5.06 L 20.98 4.32 L 22.10 4.66 L 23.29 5.09"/></svg>
